<svg width="12" height="11" viewBox="0 0 12 11" fill="none" xmlns="http://www.w3.org/2000/svg">
<mask id="path-1-inside-1_0_215" fill="white">
<path fill-rule="evenodd" clip-rule="evenodd" d="M9 5.5L0 11V0L9 5.5ZM12 0H10V11H12V0Z"/>
</mask>
<path d="M0 11H-2V14.5661L1.0429 12.7066L0 11ZM9 5.5L10.0429 7.20656L12.8355 5.5L10.0429 3.79344L9 5.5ZM0 0L1.0429 -1.70656L-2 -3.56611V0H0ZM10 0V-2H8V0H10ZM12 0H14V-2H12V0ZM10 11H8V13H10V11ZM12 11V13H14V11H12ZM1.0429 12.7066L10.0429 7.20656L7.9571 3.79344L-1.0429 9.29344L1.0429 12.7066ZM-2 0V11H2V0H-2ZM10.0429 3.79344L1.0429 -1.70656L-1.0429 1.70656L7.9571 7.20656L10.0429 3.79344ZM10 2H12V-2H10V2ZM12 11V0H8V11H12ZM12 9H10V13H12V9ZM10 0V11H14V0H10Z" fill="#001AFF" mask="url(#path-1-inside-1_0_215)"/>
</svg>
