<svg width="12" height="11" viewBox="0 0 12 11" fill="none" xmlns="http://www.w3.org/2000/svg">
<mask id="path-1-inside-1_0_225" fill="white">
<path fill-rule="evenodd" clip-rule="evenodd" d="M3 5.5L12 11V0L3 5.5ZM0 0H2V11H0V0Z"/>
</mask>
<path d="M12 11H14V14.5661L10.9571 12.7066L12 11ZM3 5.5L1.9571 7.20656L-0.835459 5.5L1.9571 3.79344L3 5.5ZM12 0L10.9571 -1.70656L14 -3.56611V0H12ZM2 0V-2H4V0H2ZM0 0H-2V-2H0V0ZM2 11H4V13H2V11ZM0 11V13H-2V11H0ZM10.9571 12.7066L1.9571 7.20656L4.0429 3.79344L13.0429 9.29344L10.9571 12.7066ZM14 0V11H10V0H14ZM1.9571 3.79344L10.9571 -1.70656L13.0429 1.70656L4.0429 7.20656L1.9571 3.79344ZM2 2H0V-2H2V2ZM0 11V0H4V11H0ZM0 9H2V13H0V9ZM2 0V11H-2V0H2Z" fill="#001AFF" mask="url(#path-1-inside-1_0_225)"/>
</svg>
