<svg width="18" height="18" viewBox="0 0 18 18" fill="none" xmlns="http://www.w3.org/2000/svg">
<mask id="path-1-inside-1_0_314" fill="white">
<path fill-rule="evenodd" clip-rule="evenodd" d="M8 16C3.58172 16 0 12.4183 0 8C0 3.58172 3.58172 0 8 0C12.4183 0 16 3.58172 16 8C16 9.8492 15.3726 11.5519 14.319 12.9067C14.332 12.9184 14.3447 12.9304 14.3571 12.9429L14.3573 12.943L17.7071 16.2929C18.0976 16.6834 18.0976 17.3166 17.7071 17.7071C17.3166 18.0976 16.6834 18.0976 16.2929 17.7071L12.9429 14.3571C12.9304 14.3447 12.9184 14.332 12.9067 14.319C11.5519 15.3726 9.8492 16 8 16ZM8 14C11.3137 14 14 11.3137 14 8C14 4.68629 11.3137 2 8 2C4.68629 2 2 4.68629 2 8C2 11.3137 4.68629 14 8 14Z"/>
</mask>
<path d="M14.319 12.9067L12.7402 11.679L11.5987 13.1469L12.9798 14.3921L14.319 12.9067ZM14.3573 12.943L12.943 14.3573V14.3573L14.3573 12.943ZM17.7071 16.2929L19.1213 14.8787L19.1213 14.8787L17.7071 16.2929ZM17.7071 17.7071L19.1213 19.1213L19.1213 19.1213L17.7071 17.7071ZM16.2929 17.7071L14.8787 19.1213L14.8787 19.1213L16.2929 17.7071ZM12.9429 14.3571L14.3571 12.9429H14.3571L12.9429 14.3571ZM12.9067 14.319L14.3921 12.9798L13.1469 11.5987L11.679 12.7402L12.9067 14.319ZM-2 8C-2 13.5228 2.47715 18 8 18V14C4.68629 14 2 11.3137 2 8H-2ZM8 -2C2.47715 -2 -2 2.47715 -2 8H2C2 4.68629 4.68629 2 8 2V-2ZM18 8C18 2.47715 13.5228 -2 8 -2V2C11.3137 2 14 4.68629 14 8H18ZM15.8978 14.1345C17.2147 12.441 18 10.3094 18 8H14C14 9.38902 13.5305 10.6627 12.7402 11.679L15.8978 14.1345ZM12.9798 14.3921C12.9673 14.3808 12.955 14.3692 12.9429 14.3571L15.7713 11.5287C15.7343 11.4917 15.6966 11.4559 15.6583 11.4213L12.9798 14.3921ZM12.9429 14.3571L12.943 14.3573L15.7715 11.5288L15.7713 11.5287L12.9429 14.3571ZM12.943 14.3573L16.2929 17.7071L19.1213 14.8787L15.7715 11.5288L12.943 14.3573ZM16.2929 17.7071C15.9024 17.3166 15.9024 16.6834 16.2929 16.2929L19.1213 19.1213C20.2929 17.9497 20.2929 16.0503 19.1213 14.8787L16.2929 17.7071ZM16.2929 16.2929C16.6834 15.9024 17.3166 15.9024 17.7071 16.2929L14.8787 19.1213C16.0503 20.2929 17.9497 20.2929 19.1213 19.1213L16.2929 16.2929ZM17.7071 16.2929L14.3571 12.9429L11.5287 15.7713L14.8787 19.1213L17.7071 16.2929ZM14.3571 12.9429C14.3692 12.955 14.3808 12.9673 14.3921 12.9798L11.4213 15.6583C11.4559 15.6966 11.4917 15.7343 11.5287 15.7713L14.3571 12.9429ZM8 18C10.3094 18 12.441 17.2147 14.1345 15.8978L11.679 12.7402C10.6627 13.5305 9.38902 14 8 14V18ZM12 8C12 10.2091 10.2091 12 8 12V16C12.4183 16 16 12.4183 16 8H12ZM8 4C10.2091 4 12 5.79086 12 8H16C16 3.58172 12.4183 0 8 0V4ZM4 8C4 5.79086 5.79086 4 8 4V0C3.58172 0 0 3.58172 0 8H4ZM8 12C5.79086 12 4 10.2091 4 8H0C0 12.4183 3.58172 16 8 16V12Z" fill="#5D6C76" mask="url(#path-1-inside-1_0_314)"/>
</svg>
