<svg width="18" height="18" viewBox="0 0 18 18" fill="none" xmlns="http://www.w3.org/2000/svg">
<mask id="path-1-inside-1_0_235" fill="white">
<path fill-rule="evenodd" clip-rule="evenodd" d="M10.9831 6.62651C11.7164 7.46811 12.7961 8 14 8C16.2091 8 18 6.20914 18 4C18 1.79086 16.2091 0 14 0C11.7909 0 10 1.79086 10 4C10 4.28742 10.0303 4.56777 10.0879 4.83801L7.01694 6.3735C6.28363 5.53189 5.20393 5 4 5C1.79086 5 0 6.79086 0 9C0 11.2091 1.79086 13 4 13C5.19499 13 6.2676 12.476 7.00055 11.6452L10.0784 13.2081C10.027 13.4641 10 13.7289 10 14C10 16.2091 11.7909 18 14 18C16.2091 18 18 16.2091 18 14C18 11.7909 16.2091 10 14 10C12.7793 10 11.6863 10.5468 10.9526 11.4089L7.90682 9.86231C7.96784 9.58459 8 9.29605 8 9C8 8.71258 7.96968 8.43223 7.91208 8.16199L10.9831 6.62651ZM14 6C15.1046 6 16 5.10457 16 4C16 2.89543 15.1046 2 14 2C12.8954 2 12 2.89543 12 4C12 5.10457 12.8954 6 14 6ZM14 16C15.1046 16 16 15.1046 16 14C16 12.8954 15.1046 12 14 12C12.8954 12 12 12.8954 12 14C12 15.1046 12.8954 16 14 16Z"/>
</mask>
<path d="M10.9831 6.62651L12.491 5.31264L11.4737 4.14513L10.0886 4.83765L10.9831 6.62651ZM10.0879 4.83801L10.9823 6.62686L12.3666 5.93471L12.044 4.42103L10.0879 4.83801ZM7.01694 6.3735L5.50904 7.68736L6.52632 8.85487L7.91137 8.16235L7.01694 6.3735ZM7.00055 11.6452L7.90608 9.86193L6.52531 9.16079L5.5008 10.322L7.00055 11.6452ZM10.0784 13.2081L12.0392 13.6019L12.3383 12.1126L10.9839 11.4248L10.0784 13.2081ZM10.9526 11.4089L10.047 13.1922L11.4534 13.9063L12.4756 12.7052L10.9526 11.4089ZM7.90682 9.86231L5.95341 9.43311L5.62126 10.9448L7.00129 11.6456L7.90682 9.86231ZM7.91208 8.16199L7.01765 6.37314L5.63335 7.06529L5.95603 8.57897L7.91208 8.16199ZM14 6C13.3984 6 12.8606 5.73687 12.491 5.31264L9.47516 7.94037C10.5721 9.19936 12.1937 10 14 10V6ZM16 4C16 5.10457 15.1046 6 14 6V10C17.3137 10 20 7.31371 20 4H16ZM14 2C15.1046 2 16 2.89543 16 4H20C20 0.686291 17.3137 -2 14 -2V2ZM12 4C12 2.89543 12.8954 2 14 2V-2C10.6863 -2 8 0.686291 8 4H12ZM12.044 4.42103C12.0154 4.28702 12 4.14642 12 4H8C8 4.42842 8.04522 4.84851 8.13187 5.25498L12.044 4.42103ZM7.91137 8.16235L10.9823 6.62686L9.19349 3.04915L6.12251 4.58464L7.91137 8.16235ZM4 7C4.6016 7 5.1394 7.26313 5.50904 7.68736L8.52484 5.05963C7.42786 3.80065 5.80626 3 4 3V7ZM2 9C2 7.89543 2.89543 7 4 7V3C0.686291 3 -2 5.68629 -2 9H2ZM4 11C2.89543 11 2 10.1046 2 9H-2C-2 12.3137 0.686291 15 4 15V11ZM5.5008 10.322C5.13139 10.7408 4.59721 11 4 11V15C5.79277 15 7.4038 14.2112 8.50031 12.9684L5.5008 10.322ZM10.9839 11.4248L7.90608 9.86193L6.09503 13.4285L9.17286 14.9914L10.9839 11.4248ZM12 14C12 13.8619 12.0137 13.7289 12.0392 13.6019L8.11753 12.8143C8.04023 13.1992 8 13.5959 8 14H12ZM14 16C12.8954 16 12 15.1046 12 14H8C8 17.3137 10.6863 20 14 20V16ZM16 14C16 15.1046 15.1046 16 14 16V20C17.3137 20 20 17.3137 20 14H16ZM14 12C15.1046 12 16 12.8954 16 14H20C20 10.6863 17.3137 8 14 8V12ZM12.4756 12.7052C12.8456 12.2705 13.3902 12 14 12V8C12.1684 8 10.527 8.82317 9.42949 10.1127L12.4756 12.7052ZM7.00129 11.6456L10.047 13.1922L11.8581 9.62565L8.81234 8.07905L7.00129 11.6456ZM6 9C6 9.15079 5.98366 9.29544 5.95341 9.43311L9.86022 10.2915C9.95201 9.87373 10 9.44131 10 9H6ZM5.95603 8.57897C5.98459 8.71298 6 8.85358 6 9H10C10 8.57157 9.95477 8.15149 9.86813 7.74502L5.95603 8.57897ZM10.0886 4.83765L7.01765 6.37314L8.8065 9.95085L11.8775 8.41536L10.0886 4.83765ZM14 4V8C16.2091 8 18 6.20914 18 4H14ZM14 4H18C18 1.79086 16.2091 0 14 0V4ZM14 4V0C11.7909 0 10 1.79086 10 4H14ZM14 4H10C10 6.20914 11.7909 8 14 8V4ZM14 14V18C16.2091 18 18 16.2091 18 14H14ZM14 14H18C18 11.7909 16.2091 10 14 10V14ZM14 14V10C11.7909 10 10 11.7909 10 14H14ZM14 14H10C10 16.2091 11.7909 18 14 18V14Z" fill="#FF0039" mask="url(#path-1-inside-1_0_235)"/>
</svg>
